<?xml version="1.0" standalone="no"?>
<!DOCTYPE svg PUBLIC "-//W3C//DTD SVG 20010904//EN"
 "http://www.w3.org/TR/2001/REC-SVG-20010904/DTD/svg10.dtd">
<svg version="1.0" xmlns="http://www.w3.org/2000/svg"
 width="178.000000pt" height="58.000000pt" viewBox="0 0 178.000000 58.000000"
 preserveAspectRatio="xMidYMid meet">

<g transform="translate(0.000000,58.000000) scale(0.100000,-0.100000)"
fill="#000000" stroke="none">
<path d="M944 565 c-4 -9 -2 -21 4 -27 16 -16 47 -5 47 17 0 26 -42 34 -51 10z"/>
<path d="M1092 499 c-33 -12 -41 -33 -38 -99 1 -36 -2 -72 -7 -81 -30 -48 59
-89 122 -56 13 6 27 22 32 34 12 34 -12 56 -67 62 -57 7 -65 24 -14 29 45 4
73 29 67 59 -3 15 1 23 9 23 8 0 14 6 14 14 0 15 -87 26 -118 15z m52 -42 c16
-25 -16 -56 -38 -37 -19 15 -20 32 -4 48 15 15 28 11 42 -11z m13 -143 c7 -19
-13 -34 -44 -34 -26 0 -35 12 -27 34 8 21 63 21 71 0z"/>
<path d="M604 489 c-31 -16 -49 -56 -48 -107 2 -74 63 -111 138 -82 55 21 73
127 28 172 -23 23 -88 32 -118 17z m80 -45 c18 -18 21 -66 6 -95 -23 -42 -90
-8 -90 46 0 29 28 65 50 65 10 0 26 -7 34 -16z"/>
<path d="M853 485 c-13 -9 -23 -11 -23 -6 0 6 -9 11 -20 11 -20 0 -21 -5 -18
-97 3 -90 5 -98 23 -98 18 0 20 8 23 65 3 72 13 90 49 90 20 0 24 4 21 22 -4
28 -26 33 -55 13z"/>
<path d="M950 390 c0 -93 1 -100 20 -100 19 0 20 7 20 100 0 93 -1 100 -20
100 -19 0 -20 -7 -20 -100z"/>
<path d="M863 223 c170 -2 444 -2 610 0 166 1 28 2 -308 2 -335 0 -471 -1
-302 -2z"/>
<path d="M570 160 c-11 -11 -20 -24 -20 -28 0 -14 33 -39 61 -46 31 -7 44 -32
28 -52 -14 -17 -61 -18 -78 -1 -11 10 -13 9 -9 -2 6 -21 52 -31 80 -17 16 8
23 20 23 41 0 25 -5 32 -35 41 -46 15 -61 40 -36 59 13 10 25 11 42 5 13 -5
24 -6 24 -1 0 8 -32 20 -52 21 -5 0 -17 -9 -28 -20z"/>
<path d="M723 156 c-55 -48 -26 -149 43 -148 62 0 88 99 39 147 -30 31 -47 31
-82 1z m80 -14 c37 -32 10 -122 -38 -122 -34 0 -55 26 -55 69 0 39 14 65 40
74 17 5 27 1 53 -21z"/>
<path d="M1377 173 c-21 -6 -47 -53 -47 -87 0 -36 40 -79 75 -79 63 1 90 99
40 148 -24 25 -33 27 -68 18z m73 -43 c26 -49 -2 -110 -51 -110 -24 0 -32 7
-46 34 -14 30 -14 39 -3 66 22 52 74 58 100 10z"/>
<path d="M1693 170 c-16 -6 -23 -18 -23 -35 0 -21 8 -29 46 -45 37 -16 45 -24
42 -42 -3 -20 -9 -23 -46 -22 -29 0 -39 -3 -33 -9 18 -18 73 -12 88 9 21 29
12 47 -39 72 -27 12 -48 29 -48 38 0 20 40 33 70 23 24 -9 24 -8 6 6 -22 17
-31 18 -63 5z"/>
<path d="M870 90 l0 -80 53 2 c47 1 48 2 12 5 -22 3 -42 9 -46 14 -3 5 -5 38
-4 74 1 36 -2 65 -7 65 -4 0 -8 -36 -8 -80z"/>
<path d="M992 104 c-2 -78 8 -97 53 -97 45 0 55 19 53 97 l-2 71 -3 -65 c-4
-71 -14 -90 -48 -90 -34 0 -44 19 -48 90 l-3 65 -2 -71z"/>
<path d="M1152 163 c26 -4 27 -6 31 -81 l3 -77 2 77 c2 75 2 77 30 81 15 2 0
4 -33 4 -33 0 -48 -2 -33 -4z"/>
<path d="M1283 90 c0 -47 2 -66 4 -42 2 23 2 61 0 85 -2 23 -4 4 -4 -43z"/>
<path d="M1512 88 l2 -83 5 75 6 75 44 -73 c24 -39 47 -72 52 -72 5 0 8 37 7
83 l-2 82 -5 -75 -6 -75 -43 73 c-24 39 -47 72 -52 72 -6 0 -9 -35 -8 -82z"/>
</g>
</svg>
